<svg width="23" height="34" viewBox="0 0 23 34" fill="none" xmlns="http://www.w3.org/2000/svg">
<path d="M11.2478 16.1965C10.1824 16.1965 9.16065 15.7733 8.4073 15.0199C7.65396 14.2666 7.23073 13.2448 7.23073 12.1794C7.23073 11.1141 7.65396 10.0923 8.4073 9.33895C9.16065 8.5856 10.1824 8.16237 11.2478 8.16237C12.3132 8.16237 13.335 8.5856 14.0883 9.33895C14.8416 10.0923 15.2649 11.1141 15.2649 12.1794C15.2649 12.707 15.161 13.2293 14.9591 13.7167C14.7572 14.2041 14.4613 14.6469 14.0883 15.0199C13.7153 15.393 13.2724 15.6889 12.7851 15.8907C12.2977 16.0926 11.7753 16.1965 11.2478 16.1965ZM11.2478 0.931641C8.2647 0.931641 5.40378 2.11667 3.2944 4.22605C1.18503 6.33542 0 9.19634 0 12.1794C0 20.6153 11.2478 33.0682 11.2478 33.0682C11.2478 33.0682 22.4956 20.6153 22.4956 12.1794C22.4956 9.19634 21.3106 6.33542 19.2012 4.22605C17.0918 2.11667 14.2309 0.931641 11.2478 0.931641Z" fill="#F8F5F5"/>
</svg>
