<svg width="28" height="23" viewBox="0 0 28 23" fill="none" xmlns="http://www.w3.org/2000/svg">
<path d="M2.75 22.5C1.99375 22.5 1.34658 22.231 0.8085 21.6929C0.270417 21.1548 0.000916667 20.5072 0 19.75V3.25C0 2.49375 0.2695 1.84658 0.8085 1.3085C1.3475 0.770416 1.99467 0.500917 2.75 0.5H24.75C25.5062 0.5 26.1539 0.7695 26.6929 1.3085C27.2319 1.8475 27.5009 2.49467 27.5 3.25V19.75C27.5 20.5062 27.231 21.1539 26.6929 21.6929C26.1548 22.2319 25.5072 22.5009 24.75 22.5H2.75ZM13.75 12.875L24.75 6V3.25L13.75 10.125L2.75 3.25V6L13.75 12.875Z" fill="#F8F5F5"/>
</svg>
