<svg width="24" height="25" viewBox="0 0 24 25" fill="none" xmlns="http://www.w3.org/2000/svg">
<path d="M11.9998 22.585C10.6593 22.5946 9.33135 22.3263 8.09976 21.797C6.91491 21.2935 5.83723 20.5681 4.92476 19.66C4.02476 18.76 3.31243 17.7016 2.78776 16.485C2.25843 15.2534 1.99012 13.9255 1.99976 12.585C1.99976 11.2016 2.26243 9.90163 2.78776 8.68497C3.29124 7.50011 4.01659 6.42243 4.92476 5.50997C5.82476 4.60997 6.8831 3.89763 8.09976 3.37297C9.33135 2.84364 10.6593 2.57533 11.9998 2.58497C13.3831 2.58497 14.6831 2.84763 15.8998 3.37297C17.0846 3.87644 18.1623 4.60179 19.0748 5.50997C19.9748 6.40997 20.6871 7.4683 21.2118 8.68497C21.7411 9.91655 22.0094 11.2445 21.9998 12.585C22.0094 13.9255 21.7411 15.2534 21.2118 16.485C20.7083 17.6698 19.9829 18.7475 19.0748 19.66C18.1748 20.56 17.1164 21.2723 15.8998 21.797C14.6682 22.3263 13.3402 22.5946 11.9998 22.585ZM10.9998 20.535V18.585C10.4498 18.585 9.9791 18.3893 9.58776 17.998C9.39859 17.815 9.24884 17.5952 9.14772 17.3522C9.0466 17.1092 8.99625 16.8481 8.99976 16.585V15.585L4.19976 10.785C4.14976 11.085 4.10376 11.385 4.06176 11.685C4.02043 11.985 3.99976 12.285 3.99976 12.585C3.99976 14.6016 4.6621 16.3683 5.98676 17.885C7.31143 19.4016 8.98243 20.285 10.9998 20.535ZM17.8998 17.985C18.2331 17.6183 18.5331 17.2226 18.7998 16.798C19.0664 16.3726 19.2871 15.9306 19.4618 15.472C19.6371 15.014 19.7704 14.5433 19.8618 14.06C19.9538 13.5766 19.9998 13.085 19.9998 12.585C20.0108 10.9894 19.5353 9.42845 18.6368 8.10997C17.7562 6.78218 16.4855 5.76022 14.9998 5.18497V5.58497C14.9998 6.1343 14.8038 6.60497 14.4118 6.99697C14.2289 7.18602 14.0093 7.3357 13.7665 7.43681C13.5237 7.53793 13.2628 7.58835 12.9998 7.58497H10.9998V9.58497C10.9998 9.86763 10.9041 10.1053 10.7128 10.298C10.6197 10.3919 10.5085 10.4657 10.3859 10.5151C10.2633 10.5645 10.1319 10.5882 9.99976 10.585H7.99976V12.585H13.9998C14.2824 12.585 14.5201 12.6806 14.7128 12.872C14.9041 13.064 14.9998 13.3016 14.9998 13.585V16.585H15.9998C16.4331 16.585 16.8248 16.714 17.1748 16.972C17.5248 17.2306 17.7664 17.5683 17.8998 17.985Z" fill="#A8AFBD"/>
</svg>
