<svg width="34" height="34" viewBox="0 0 34 34" fill="none" xmlns="http://www.w3.org/2000/svg">
<path d="M5.87695 11.5627V5.95155C5.87695 5.20748 6.17253 4.49387 6.69869 3.96773C7.22483 3.44158 7.93843 3.146 8.68251 3.146H19.9047L28.3214 11.5627V28.396C28.3214 29.14 28.0258 29.8536 27.4997 30.3798C26.9735 30.906 26.2599 31.2016 25.5158 31.2016H17.0992" stroke="#607D8B" stroke-width="2.80556" stroke-linecap="round" stroke-linejoin="round"/>
<path d="M19.9048 3.146V11.5627H28.3215" stroke="#607D8B" stroke-width="2.80556" stroke-linecap="round" stroke-linejoin="round"/>
<path d="M8.68262 16.4722V31.9027" stroke="#607D8B" stroke-width="2.80556" stroke-linecap="round" stroke-linejoin="round"/>
<path d="M12.1894 19.2778H6.92898C6.27791 19.2778 5.65351 19.5365 5.19313 19.9969C4.73275 20.4573 4.47412 21.0817 4.47412 21.7327C4.47412 22.3837 4.73275 23.0081 5.19313 23.4685C5.65351 23.9289 6.27791 24.1876 6.92898 24.1876H10.4359C11.087 24.1876 11.7114 24.4462 12.1718 24.9066C12.6322 25.367 12.8908 25.9914 12.8908 26.6424C12.8908 27.2934 12.6322 27.9178 12.1718 28.3782C11.7114 28.8386 11.087 29.0973 10.4359 29.0973H4.47412" stroke="#607D8B" stroke-width="2.80556" stroke-linecap="round" stroke-linejoin="round"/>
</svg>
