<svg width="34" height="34" viewBox="0 0 34 34" fill="none" xmlns="http://www.w3.org/2000/svg">
<path d="M19.8212 3.146H8.59901C7.85494 3.146 7.14133 3.44158 6.61519 3.96773C6.08904 4.49387 5.79346 5.20748 5.79346 5.95155V28.396C5.79346 29.14 6.08904 29.8536 6.61519 30.3798C7.14133 30.906 7.85494 31.2016 8.59901 31.2016H25.4323C26.1764 31.2016 26.89 30.906 27.4162 30.3798C27.9423 29.8536 28.2379 29.14 28.2379 28.396V11.5627L19.8212 3.146Z" stroke="#607D8B" stroke-width="2.80556" stroke-linecap="round" stroke-linejoin="round"/>
<path d="M19.8213 3.146V11.5627H28.238" stroke="#607D8B" stroke-width="2.80556" stroke-linecap="round" stroke-linejoin="round"/>
<path d="M22.627 18.5764H11.4048" stroke="#607D8B" stroke-width="2.80556" stroke-linecap="round" stroke-linejoin="round"/>
<path d="M22.627 24.1875H11.4048" stroke="#607D8B" stroke-width="2.80556" stroke-linecap="round" stroke-linejoin="round"/>
<path d="M14.2103 12.9653H12.8076H11.4048" stroke="#607D8B" stroke-width="2.80556" stroke-linecap="round" stroke-linejoin="round"/>
</svg>
