<svg width="35" height="34" viewBox="0 0 35 34" fill="none" xmlns="http://www.w3.org/2000/svg">
<path d="M11.57 19.9793C16.2184 19.9793 19.9867 16.211 19.9867 11.5627C19.9867 6.91426 16.2184 3.146 11.57 3.146C6.92159 3.146 3.15332 6.91426 3.15332 11.5627C3.15332 16.211 6.92159 19.9793 11.57 19.9793Z" stroke="#607D8B" stroke-width="2.80556" stroke-linecap="round" stroke-linejoin="round"/>
<path d="M25.7236 14.8887C27.0498 15.383 28.2296 16.2038 29.1545 17.2751C30.0793 18.3464 30.719 19.6334 31.0146 21.0175C31.3101 22.4015 31.2518 23.8377 30.8453 25.1932C30.4386 26.5488 29.6968 27.7799 28.6884 28.7728C27.6799 29.7657 26.4373 30.4883 25.0755 30.8736C23.7138 31.2591 22.2768 31.2949 20.8976 30.9778C19.5184 30.6607 18.2414 30.0009 17.1847 29.0595C16.128 28.1181 15.3258 26.9255 14.8521 25.5919" stroke="#607D8B" stroke-width="2.80556" stroke-linecap="round" stroke-linejoin="round"/>
<path d="M10.167 8.75708H11.5698V14.3682" stroke="#607D8B" stroke-width="2.80556" stroke-linecap="round" stroke-linejoin="round"/>
<path d="M23.7879 19.8093L24.7698 20.8053L20.814 24.7611" stroke="#607D8B" stroke-width="2.80556" stroke-linecap="round" stroke-linejoin="round"/>
</svg>
