<svg width="35" height="34" viewBox="0 0 35 34" fill="none" xmlns="http://www.w3.org/2000/svg">
<path d="M30.0566 10.8611V8.75697C30.0566 8.0129 29.7611 7.29929 29.2349 6.77315C28.7087 6.247 27.9951 5.95142 27.2511 5.95142H7.6122C6.86812 5.95142 6.15451 6.247 5.62837 6.77315C5.10222 7.29929 4.80664 8.0129 4.80664 8.75697V28.3959C4.80664 29.1399 5.10222 29.8535 5.62837 30.3797C6.15451 30.9059 6.86812 31.2014 7.6122 31.2014H12.5219" stroke="#607D8B" stroke-width="2.80556" stroke-linecap="round" stroke-linejoin="round"/>
<path d="M23.0425 3.146V8.75711" stroke="#607D8B" stroke-width="2.80556" stroke-linecap="round" stroke-linejoin="round"/>
<path d="M11.8203 3.146V8.75711" stroke="#607D8B" stroke-width="2.80556" stroke-linecap="round" stroke-linejoin="round"/>
<path d="M4.80664 14.3682H11.8205" stroke="#607D8B" stroke-width="2.80556" stroke-linecap="round" stroke-linejoin="round"/>
<path d="M25.1466 24.889L23.0425 23.1355V19.9792" stroke="#607D8B" stroke-width="2.80556" stroke-linecap="round" stroke-linejoin="round"/>
<path d="M31.4593 22.7848C31.4593 25.0171 30.5726 27.1578 28.9941 28.7363C27.4157 30.3148 25.2749 31.2015 23.0426 31.2015C20.8104 31.2015 18.6696 30.3148 17.0912 28.7363C15.5127 27.1578 14.626 25.0171 14.626 22.7848C14.626 20.5526 15.5127 18.4118 17.0912 16.8334C18.6696 15.2549 20.8104 14.3682 23.0426 14.3682C25.2749 14.3682 27.4157 15.2549 28.9941 16.8334C30.5726 18.4118 31.4593 20.5526 31.4593 22.7848Z" stroke="#607D8B" stroke-width="2.80556" stroke-linecap="round" stroke-linejoin="round"/>
</svg>
