<svg width="35" height="34" viewBox="0 0 35 34" fill="none" xmlns="http://www.w3.org/2000/svg">
<path d="M18.7509 11.5625C18.7509 7.69081 15.3 4.54858 11.0356 4.54858C6.77115 4.54858 3.32031 7.69081 3.32031 11.5625H6.12587L7.52865 10.1597L8.93142 11.5625H14.5425" stroke="#607D8B" stroke-width="2.80556" stroke-linecap="round" stroke-linejoin="round"/>
<path d="M18.751 10.3564C20.1714 9.30625 21.8942 8.74511 23.6607 8.75727C27.9251 8.75727 31.376 11.8995 31.376 15.7711H27.1676L25.7649 14.3683L24.3621 15.7711H20.1538" stroke="#607D8B" stroke-width="2.80556" stroke-linecap="round" stroke-linejoin="round"/>
<path d="M8.77746 13.962C5.76149 16.978 5.55107 21.6352 8.28649 24.3847L14.2343 18.4229L15.2162 17.4409L16.2122 16.445L19.1861 13.471C16.4507 10.7216 11.7934 10.946 8.77746 13.962Z" stroke="#607D8B" stroke-width="2.80556" stroke-linecap="round" stroke-linejoin="round"/>
<path d="M15.9453 22.0833C16.6466 25.5903 15.7068 28.3958 14.5425 31.2014H20.1536C22.9591 23.4861 19.4522 14.3681 18.7508 11.5625" stroke="#607D8B" stroke-width="2.80556" stroke-linecap="round" stroke-linejoin="round"/>
</svg>
